<svg width="20" height="20" viewBox="0 0 20 20" fill="none" xmlns="http://www.w3.org/2000/svg">
<rect width="20" height="20" rx="4" fill="#6DCFFC"/>
<path d="M8.6725 5.11666C7.75134 5.42614 6.92525 5.9673 6.27358 6.68815C5.62191 7.40901 5.16657 8.28534 4.9513 9.23295C4.73603 10.1806 4.76806 11.1676 5.04432 12.0993C5.32058 13.0309 5.83179 13.8759 6.52883 14.553C7.22586 15.23 8.08531 15.7165 9.02459 15.9656C9.96388 16.2147 10.9514 16.2181 11.8924 15.9754C12.8334 15.7327 13.6961 15.2521 14.3977 14.5798C15.0994 13.9075 15.6163 13.066 15.8989 12.1362C13.4906 13.1704 10.7649 13.5387 7.72121 13.2448C7.21758 10.3222 7.53421 7.61354 8.6725 5.11666ZM10.4065 4.82341C9.93554 5.66575 9.56877 6.56223 9.31425 7.49312C10.4102 7.51496 11.455 7.96081 12.229 8.73695C12.9612 9.46706 13.4009 10.4399 13.4651 11.4718C14.4072 11.2303 15.299 10.891 16.1426 10.4568C16.1388 9.70939 15.9871 8.97014 15.6962 8.28167C15.4054 7.59319 14.9811 6.96911 14.4478 6.44541C13.9146 5.92171 13.283 5.50876 12.5893 5.23038C11.8957 4.95199 11.1538 4.81368 10.4065 4.82341V4.82341ZM5.46729 15.4987C2.70125 12.7327 2.70125 8.24749 5.46729 5.48145C8.23333 2.71541 12.7185 2.71541 15.4845 5.48145C18.2506 8.24749 18.2506 12.7327 15.4845 15.4987C12.7185 18.2647 8.23333 18.2647 5.46729 15.4987ZM9.02313 8.91616C8.88676 9.90903 8.86869 10.9146 8.96929 11.9117C10.0013 11.9572 11.0354 11.905 12.0576 11.7559C12.0599 11.3814 11.9877 11.0102 11.8451 10.6638C11.7026 10.3175 11.4927 10.003 11.2275 9.73854C10.9407 9.45118 10.5953 9.22898 10.2149 9.08707C9.83455 8.94516 9.42806 8.88687 9.02313 8.91616V8.91616Z" fill="white"/>
</svg>
