<svg width="20" height="20" viewBox="0 0 20 20" fill="none" xmlns="http://www.w3.org/2000/svg">
<rect width="20" height="20" rx="4" fill="#23CBD8"/>
<path d="M6.25 11.9375H4.625V14.375H6.25V11.9375ZM10.3125 8.6875H8.6875V14.375H10.3125V8.6875ZM14.375 4.625V14.375H12.75V4.625H14.375ZM12.75 3.8125C12.5345 3.8125 12.3278 3.8981 12.1755 4.05048C12.0231 4.20285 11.9375 4.40951 11.9375 4.625V14.375C11.9375 14.5905 12.0231 14.7972 12.1755 14.9495C12.3278 15.1019 12.5345 15.1875 12.75 15.1875H14.375C14.5905 15.1875 14.7972 15.1019 14.9495 14.9495C15.1019 14.7972 15.1875 14.5905 15.1875 14.375V4.625C15.1875 4.40951 15.1019 4.20285 14.9495 4.05048C14.7972 3.8981 14.5905 3.8125 14.375 3.8125H12.75ZM7.875 8.6875C7.875 8.47201 7.9606 8.26535 8.11298 8.11298C8.26535 7.9606 8.47201 7.875 8.6875 7.875H10.3125C10.528 7.875 10.7347 7.9606 10.887 8.11298C11.0394 8.26535 11.125 8.47201 11.125 8.6875V14.375C11.125 14.5905 11.0394 14.7972 10.887 14.9495C10.7347 15.1019 10.528 15.1875 10.3125 15.1875H8.6875C8.47201 15.1875 8.26535 15.1019 8.11298 14.9495C7.9606 14.7972 7.875 14.5905 7.875 14.375V8.6875ZM3.8125 11.9375C3.8125 11.722 3.8981 11.5153 4.05048 11.363C4.20285 11.2106 4.40951 11.125 4.625 11.125H6.25C6.46549 11.125 6.67215 11.2106 6.82452 11.363C6.9769 11.5153 7.0625 11.722 7.0625 11.9375V14.375C7.0625 14.5905 6.9769 14.7972 6.82452 14.9495C6.67215 15.1019 6.46549 15.1875 6.25 15.1875H4.625C4.40951 15.1875 4.20285 15.1019 4.05048 14.9495C3.8981 14.7972 3.8125 14.5905 3.8125 14.375V11.9375Z" fill="white"/>
</svg>
