<svg width="20" height="20" viewBox="0 0 20 20" fill="none" xmlns="http://www.w3.org/2000/svg">
<rect width="20" height="20" rx="4" fill="#AE2AFF"/>
<g clip-path="url(#clip0_1_943)">
<path d="M10 11.2656C10.699 11.2656 11.2656 10.699 11.2656 10C11.2656 9.30101 10.699 8.73438 10 8.73438C9.30101 8.73438 8.73438 9.30101 8.73438 10C8.73438 10.699 9.30101 11.2656 10 11.2656Z" fill="white"/>
<path d="M7.68814 13.0153C7.57882 13.0154 7.47073 12.9924 7.37098 12.9477C7.27124 12.9029 7.18211 12.8376 7.10946 12.7559C6.43475 11.9966 6.06207 11.0161 6.06207 10.0003C6.06207 8.98458 6.43475 8.00411 7.10946 7.2448C7.17638 7.16689 7.25814 7.10309 7.34998 7.05711C7.44181 7.01114 7.54189 6.98392 7.64436 6.97704C7.74683 6.97015 7.84964 6.98375 7.9468 7.01702C8.04396 7.0503 8.13352 7.10259 8.21026 7.17085C8.28699 7.23911 8.34936 7.32197 8.39373 7.41459C8.4381 7.50722 8.46358 7.60775 8.46868 7.71032C8.47378 7.8129 8.4584 7.91546 8.42344 8.01203C8.38848 8.10859 8.33463 8.19723 8.26505 8.27277C7.84209 8.74891 7.60848 9.36365 7.60848 10.0005C7.60848 10.6374 7.84209 11.2521 8.26505 11.7283C8.36401 11.8397 8.42868 11.9773 8.45128 12.1246C8.47388 12.2719 8.45344 12.4226 8.39242 12.5586C8.33141 12.6945 8.23241 12.81 8.10734 12.891C7.98227 12.972 7.83646 13.0152 7.68743 13.0153H7.68814ZM12.3119 13.0153C12.1629 13.0152 12.017 12.972 11.892 12.891C11.7669 12.81 11.6679 12.6945 11.6069 12.5586C11.5459 12.4226 11.5254 12.2719 11.548 12.1246C11.5706 11.9773 11.6353 11.8397 11.7343 11.7283C12.1572 11.2521 12.3908 10.6374 12.3908 10.0005C12.3908 9.36365 12.1572 8.74891 11.7343 8.27277C11.6647 8.19723 11.6108 8.10859 11.5759 8.01203C11.5409 7.91546 11.5255 7.8129 11.5306 7.71032C11.5357 7.60775 11.5612 7.50722 11.6056 7.41459C11.65 7.32197 11.7123 7.23911 11.7891 7.17085C11.8658 7.10259 11.9554 7.0503 12.0525 7.01702C12.1497 6.98375 12.2525 6.97015 12.355 6.97704C12.4574 6.98392 12.5575 7.01114 12.6493 7.05711C12.7412 7.10309 12.8229 7.16689 12.8899 7.2448C13.5646 8.00411 13.9372 8.98458 13.9372 10.0003C13.9372 11.0161 13.5646 11.9966 12.8899 12.7559C12.8173 12.8375 12.7283 12.9028 12.6287 12.9475C12.529 12.9922 12.4211 13.0153 12.3119 13.0153V13.0153Z" fill="white"/>
<path d="M5.89692 14.8066C5.79083 14.8067 5.68585 14.7849 5.58858 14.7425C5.4913 14.7002 5.40382 14.6382 5.33161 14.5605C4.17507 13.3232 3.53171 11.6928 3.53171 9.99912C3.53171 8.30547 4.17507 6.67506 5.33161 5.43778C5.40083 5.36296 5.48416 5.30256 5.57681 5.26006C5.66945 5.21755 5.76959 5.19378 5.87145 5.19011C5.97331 5.18643 6.0749 5.20293 6.17036 5.23865C6.26583 5.27437 6.35329 5.32861 6.42773 5.39825C6.50216 5.46789 6.5621 5.55155 6.60409 5.64443C6.64607 5.73731 6.66929 5.83757 6.6724 5.93946C6.67551 6.04134 6.65845 6.14283 6.6222 6.2381C6.58595 6.33336 6.53123 6.42053 6.46118 6.49457C5.57265 7.44529 5.07839 8.69801 5.07839 9.9993C5.07839 11.3006 5.57265 12.5533 6.46118 13.504C6.56383 13.6142 6.63211 13.7519 6.65763 13.9002C6.68316 14.0486 6.66482 14.2012 6.60488 14.3393C6.54493 14.4774 6.44598 14.595 6.32016 14.6777C6.19434 14.7604 6.04712 14.8046 5.89657 14.8048L5.89692 14.8066ZM14.1031 14.8066C13.9525 14.8063 13.8053 14.7622 13.6795 14.6795C13.5537 14.5968 13.4547 14.4792 13.3948 14.3411C13.3348 14.203 13.3165 14.0504 13.342 13.902C13.3676 13.7536 13.4358 13.6159 13.5385 13.5058C14.427 12.5551 14.9213 11.3023 14.9213 10.0011C14.9213 8.69977 14.427 7.44705 13.5385 6.49633C13.4684 6.42228 13.4137 6.33512 13.3775 6.23986C13.3412 6.14459 13.3242 6.0431 13.3273 5.94121C13.3304 5.83933 13.3536 5.73907 13.3956 5.64619C13.4376 5.55331 13.4975 5.46965 13.5719 5.40001C13.6464 5.33037 13.7338 5.27613 13.8293 5.24041C13.9248 5.20469 14.0263 5.18819 14.1282 5.19187C14.2301 5.19554 14.3302 5.21931 14.4229 5.26181C14.5155 5.30432 14.5988 5.36472 14.6681 5.43953C15.8246 6.67682 16.468 8.30723 16.468 10.0009C16.468 11.6945 15.8246 13.3249 14.6681 14.5622C14.5957 14.6396 14.5082 14.7012 14.411 14.7433C14.3138 14.7853 14.209 14.8068 14.1031 14.8066V14.8066Z" fill="white"/>
<path d="M16.0822 16.3984C15.9329 16.3984 15.7868 16.3551 15.6615 16.2739C15.5362 16.1927 15.4372 16.0769 15.3762 15.9406C15.3153 15.8043 15.2951 15.6533 15.3182 15.5057C15.3412 15.3582 15.4064 15.2205 15.506 15.1092C16.7602 13.7029 17.4534 11.8844 17.4534 9.99999C17.4534 8.1156 16.7602 6.29705 15.506 4.89073C15.3735 4.73727 15.3067 4.53796 15.3197 4.33568C15.3327 4.1334 15.4247 3.94432 15.5757 3.80913C15.7267 3.67395 15.9248 3.60345 16.1273 3.61283C16.3298 3.6222 16.5205 3.71069 16.6584 3.85925C18.1665 5.5492 18.9999 7.735 18.9999 9.99999C18.9999 12.265 18.1665 14.4508 16.6584 16.1407C16.5859 16.2218 16.4971 16.2866 16.3978 16.331C16.2985 16.3754 16.1909 16.3984 16.0822 16.3984V16.3984ZM3.91812 16.3984C3.80921 16.3986 3.7015 16.3758 3.60206 16.3314C3.50263 16.2869 3.41372 16.222 3.3412 16.1407C1.83314 14.4508 0.999664 12.265 0.999664 9.99999C0.999664 7.735 1.83314 5.5492 3.3412 3.85925C3.47911 3.71069 3.66982 3.6222 3.8723 3.61283C4.07478 3.60345 4.27286 3.67395 4.42389 3.80913C4.57493 3.94432 4.66686 4.1334 4.6799 4.33568C4.69294 4.53796 4.62605 4.73727 4.49363 4.89073C3.23935 6.29705 2.5462 8.1156 2.5462 9.99999C2.5462 11.8844 3.23935 13.7029 4.49363 15.1092C4.59315 15.2205 4.65836 15.3581 4.68141 15.5056C4.70445 15.653 4.68434 15.804 4.6235 15.9403C4.56267 16.0766 4.4637 16.1923 4.33853 16.2736C4.21337 16.3549 4.06736 16.3983 3.91812 16.3984V16.3984Z" fill="white"/>
</g>
<defs>
<clipPath id="clip0_1_943">
<rect width="18" height="18" fill="white" transform="translate(1 1)"/>
</clipPath>
</defs>
</svg>
