<svg width="20" height="20" viewBox="0 0 20 20" fill="none" xmlns="http://www.w3.org/2000/svg">
<rect width="20" height="20" rx="4" fill="#1645FF"/>
<path d="M9 10.295L7.705 9L7 9.705L9 11.705L13 7.705L12.295 7L9 10.295Z" fill="white"/>
<path d="M10 17L6.912 15.3535C6.03167 14.8852 5.29549 14.1859 4.78246 13.3309C4.26944 12.4758 3.99894 11.4972 4 10.5V4C4.00027 3.73486 4.10571 3.48066 4.29319 3.29319C4.48067 3.10571 4.73487 3.00026 5 3H15C15.2651 3.00026 15.5193 3.10571 15.7068 3.29319C15.8943 3.48066 15.9997 3.73486 16 4V10.5C16.0011 11.4972 15.7306 12.4758 15.2175 13.3309C14.7045 14.1859 13.9683 14.8852 13.088 15.3535L10 17ZM5 4V10.5C4.99917 11.3159 5.22055 12.1166 5.64038 12.8162C6.06022 13.5158 6.66264 14.0879 7.383 14.471L10 15.8665L12.617 14.4715C13.3374 14.0883 13.9399 13.5162 14.3597 12.8165C14.7796 12.1168 15.0009 11.316 15 10.5V4H5Z" fill="white"/>
</svg>
