<svg width="14" height="15" viewBox="0 0 14 15" fill="none" xmlns="http://www.w3.org/2000/svg">
<g clip-path="url(#clip0_19_140)">
<path d="M13.9128 12.9592C13.913 13.1531 13.8743 13.3452 13.799 13.5244C13.7237 13.7036 13.6133 13.8664 13.474 14.0036C13.3348 14.1408 13.1695 14.2496 12.9875 14.3239C12.8056 14.3982 12.6105 14.4364 12.4135 14.4365H1.50031C0.672564 14.4367 0.0012207 13.7752 0.0012207 12.9592V2.21734C0.00122067 1.82588 0.159139 1.45044 0.440255 1.17357C0.721371 0.896705 1.10267 0.741077 1.50031 0.740906H12.4135C12.6105 0.740934 12.8054 0.779146 12.9874 0.853359C13.1693 0.927572 13.3346 1.03633 13.4738 1.17343C13.613 1.31053 13.7234 1.47329 13.7988 1.6524C13.8741 1.83152 13.9129 2.02348 13.9128 2.21734V12.9592Z" fill="#E6E7E8"/>
<path d="M2.06265 1.6936V13.5701V1.6936ZM3.47381 1.6936V13.5701V1.6936ZM4.88496 1.6936V13.5701V1.6936ZM6.29612 1.6936V13.5701V1.6936ZM7.70662 1.6936V13.5701V1.6936ZM9.11843 1.6936V13.5701V1.6936ZM10.5285 1.6936V13.5701V1.6936ZM11.9416 1.6936V13.5701V1.6936ZM0.915527 12.5367H12.9796H0.915527ZM0.915527 11.1466H12.9796H0.915527ZM0.915527 9.75824H12.9796H0.915527ZM0.915527 8.36901H12.9796H0.915527Z" stroke="#000055" stroke-opacity="0.221" stroke-width="0.4" stroke-linecap="round"/>
<path d="M8.03356 14.4479V8.70669C8.03356 8.26307 7.44972 7.92712 6.99931 7.92712C6.54891 7.92712 5.96484 8.26329 5.96484 8.70669V14.4479H8.03356Z" fill="#F05A28"/>
<path d="M7.38891 8.00207C7.25897 7.95533 7.124 7.92712 6.99931 7.92712C6.54891 7.92712 5.96484 8.26329 5.96484 8.70669V14.4479H6.74469V8.70669C6.74469 8.38625 7.05028 8.12395 7.38891 8.00207Z" fill="#D04427"/>
<path d="M0.915527 6.9798H12.9796H0.915527ZM0.915527 5.59058H12.9796H0.915527Z" stroke="#000055" stroke-opacity="0.221" stroke-width="0.4" stroke-linecap="round"/>
<path d="M4.18029 14.4479V6.12207C4.18029 5.67866 3.37792 5.31946 2.92729 5.31946C2.47688 5.31946 1.67407 5.67866 1.67407 6.12207V14.4479H4.18029Z" fill="#208D55"/>
<path d="M3.40179 5.43319C3.23313 5.37505 3.06448 5.33887 2.92863 5.33887C2.47823 5.33887 1.67542 5.69807 1.67542 6.14148V14.4673H2.62151V6.14148C2.62151 5.8318 3.01263 5.56692 3.40179 5.43319Z" fill="#1B8049"/>
<path d="M0.915527 4.2016H12.9796H0.915527ZM0.915527 2.81238H12.9796H0.915527Z" stroke="#000055" stroke-opacity="0.221" stroke-width="0.4" stroke-linecap="round"/>
<path d="M12.2373 14.4479V2.24511C12.2373 1.80171 11.4347 1.4425 10.9843 1.4425C10.5339 1.4425 9.73108 1.80171 9.73108 2.24511V14.4479H12.2373Z" fill="#0867A3"/>
<path d="M11.4516 1.53424C11.2849 1.47782 11.1191 1.4425 10.9845 1.4425C10.5341 1.4425 9.73132 1.80171 9.73132 2.24511V14.4479H10.6656V2.24511C10.6656 1.93436 11.0602 1.66755 11.4516 1.53424Z" fill="#055E8C"/>
</g>
<defs>
<clipPath id="clip0_19_140">
<rect width="14" height="13.7824" fill="white" transform="translate(0 0.740906)"/>
</clipPath>
</defs>
</svg>
