<svg width="18" height="18" viewBox="0 0 18 18" fill="none" xmlns="http://www.w3.org/2000/svg">
<path fill-rule="evenodd" clip-rule="evenodd" d="M3.37275 6.2775C3.38426 4.63979 4.03878 3.07217 5.19525 1.9125L4.3965 1.125C3.71621 1.79958 3.17624 2.6022 2.80775 3.48655C2.43926 4.37089 2.24954 5.31946 2.24954 6.2775C2.24954 7.23555 2.43926 8.18411 2.80775 9.06845C3.17624 9.9528 3.71621 10.7554 4.3965 11.43L5.19525 10.6425C4.03878 9.48284 3.38426 7.91521 3.37275 6.2775ZM4.56525 6.2775C4.56234 6.94094 4.69223 7.59826 4.94727 8.21073C5.20231 8.8232 5.57733 9.37844 6.05025 9.84375L6.849 9.045C6.47924 8.68923 6.188 8.26003 5.994 7.785C5.79443 7.30944 5.69164 6.79887 5.69164 6.28313C5.69164 5.76738 5.79443 5.25681 5.994 4.78125C6.18511 4.30139 6.47662 3.86795 6.849 3.51L6.05025 2.71125C5.57936 3.17808 5.20567 3.73361 4.95077 4.34573C4.69588 4.95785 4.56485 5.61443 4.56525 6.2775ZM13.1715 9.88875L12.3727 9.09C12.744 8.73 13.0365 8.298 13.2277 7.81875C13.4274 7.3432 13.5302 6.83263 13.5302 6.31688C13.5302 5.80113 13.4274 5.29055 13.2277 4.815C13.0366 4.33514 12.7451 3.9017 12.3727 3.54375L13.1715 2.75625C13.6418 3.22344 14.0151 3.77905 14.2699 4.39111C14.5246 5.00316 14.6557 5.65956 14.6557 6.3225C14.6557 6.98545 14.5246 7.64184 14.2699 8.2539C14.0151 8.86595 13.6418 9.42156 13.1715 9.88875ZM14.7015 1.125L13.9027 1.92375C14.4803 2.49221 14.939 3.1699 15.2521 3.91736C15.5652 4.66482 15.7264 5.46711 15.7264 6.2775C15.7264 7.08789 15.5652 7.89018 15.2521 8.63764C14.939 9.3851 14.4803 10.0628 13.9027 10.6313L14.7015 11.43C15.3818 10.7554 15.9217 9.9528 16.2902 9.06845C16.6587 8.18411 16.8484 7.23555 16.8484 6.2775C16.8484 5.31946 16.6587 4.37089 16.2902 3.48655C15.9217 2.6022 15.3818 1.79958 14.7015 1.125ZM11.2421 6.10875C11.2805 6.49706 11.1831 6.88667 10.9665 7.21125C10.8731 7.30633 10.7715 7.39292 10.6627 7.47L14.5327 16.1663L13.4977 16.6163L12.6315 14.67H6.399L5.53275 16.6163L4.49775 16.1663L8.36775 7.47C8.1344 7.23346 7.97502 6.93406 7.90909 6.6084C7.84316 6.28274 7.87353 5.94493 7.9965 5.63625C8.12809 5.32569 8.34693 5.05995 8.6265 4.87125C8.86887 4.7096 9.14896 4.61345 9.43951 4.59215C9.73007 4.57086 10.0212 4.62516 10.2845 4.74975C10.5479 4.87434 10.7745 5.065 10.9423 5.30315C11.1101 5.5413 11.2134 5.81884 11.2421 6.10875ZM9.44775 5.72625C9.3411 5.75138 9.24365 5.80595 9.1665 5.88375C9.10605 5.95517 9.06361 6.04004 9.04275 6.13125C9.00911 6.2374 9.00911 6.35135 9.04275 6.4575C9.08775 6.55875 9.1575 6.64875 9.24525 6.71625C9.34002 6.77453 9.44899 6.80566 9.56025 6.80625C9.70853 6.80337 9.84994 6.74318 9.95481 6.63831C10.0597 6.53344 10.1199 6.39203 10.1227 6.24375C10.1222 6.13249 10.091 6.02353 10.0327 5.92875C9.96518 5.84028 9.87611 5.77057 9.774 5.72625C9.66785 5.69261 9.55389 5.69261 9.44775 5.72625ZM9.7065 8.0325H9.40275L8.424 10.215H10.674L9.7065 8.0325ZM12.1815 13.59L11.1802 11.34H7.94025L6.939 13.59H12.1815Z" fill="white"/>
</svg>
