<svg width="20" height="20" viewBox="0 0 20 20" fill="none" xmlns="http://www.w3.org/2000/svg">
<rect width="20" height="20" rx="4" fill="#FFB766"/>
<path d="M12 2C12.6625 2 13.2 2.67156 13.2 3.5V6.5C13.2 7.32813 12.6625 8 12 8H10.8V9H17.2C17.6425 9 18 9.44688 18 10C18 10.5531 17.6425 11 17.2 11H14.8V12H16C16.6625 12 17.2 12.6719 17.2 13.5V16.5C17.2 17.3281 16.6625 18 16 18H12C11.3375 18 10.8 17.3281 10.8 16.5V13.5C10.8 12.6719 11.3375 12 12 12H13.2V11H6.8V12H8C8.6625 12 9.2 12.6719 9.2 13.5V16.5C9.2 17.3281 8.6625 18 8 18H4C3.33725 18 2.8 17.3281 2.8 16.5V13.5C2.8 12.6719 3.33725 12 4 12H5.2V11H2.8C2.35825 11 2 10.5531 2 10C2 9.44688 2.35825 9 2.8 9H9.2V8H8C7.3375 8 6.8 7.32813 6.8 6.5V3.5C6.8 2.67156 7.3375 2 8 2H12ZM8.4 4V6H11.6V4H8.4ZM7.6 16V14H4.4V16H7.6ZM12.4 14V16H15.6V14H12.4Z" fill="white"/>
</svg>
